<svg xmlns="http://www.w3.org/2000/svg" viewBox="0 0 100 100">
  <!-- Created by Brad Avison from the Noun Project -->
  <path d="M90.94 52.493a.356.356 0 010-.452l5.213-6.333c.264-.321.318-.755.14-1.132a1.057 1.057 0 00-.965-.612H83.116v-3.468c0-.588-.48-1.066-1.067-1.066H17.951c-.588 0-1.066.478-1.066 1.066v3.468H4.67c-.416 0-.786.234-.964.611-.178.377-.124.812.142 1.133l5.212 6.333a.358.358 0 010 .452l-5.212 6.333c-.266.321-.32.756-.142 1.133.178.377.548.611.964.611h18.167c.307 0 .579-.134.773-.341.003-.004.01-.002.013-.006.004-.006 0-.014.005-.02.166-.189.276-.43.276-.7v-3.468h52.19v3.469c0 .269.109.508.274.696.004.005 0 .012.005.017.002.004.007.002.01.005.195.211.468.348.777.348h18.167c.418 0 .787-.235.965-.612a1.059 1.059 0 00-.14-1.132l-5.213-6.333zM17.596 40.496c0-.195.16-.355.355-.355H82.05c.196 0 .356.16.356.355V54.97c0 .073-.04.132-.079.189l-.143.11c-.045.021-.082.056-.134.056H17.951a.347.347 0 01-.22-.091l-.038-.03a.35.35 0 01-.097-.234V40.496zM4.35 59.656a.352.352 0 01.046-.379l5.213-6.332a1.068 1.068 0 000-1.356l-5.213-6.332a.352.352 0 01-.046-.378.349.349 0 01.32-.204h12.214V54.97c0 .304.131.575.336.77l5.347 4.12H4.671a.349.349 0 01-.32-.203zm18.843-.214l-4.421-3.407h4.42v3.407zm57.999-3.407l-4.387 3.398v-3.398h4.387zm14.457 3.62a.35.35 0 01-.322.204h-17.91l5.046-3.908c.382-.162.652-.541.652-.982V44.675h12.212c.21 0 .3.156.322.204a.35.35 0 01-.047.378l-5.213 6.332a1.071 1.071 0 000 1.356l5.213 6.332a.35.35 0 01.047.378z"/>
</svg>